<?xml version="1.0" encoding="UTF-8"?>
<svg id="Layer_1" xmlns="http://www.w3.org/2000/svg" version="1.1" viewBox="0 0 792 612">
  <!-- Generator: Adobe Illustrator 30.0.0, SVG Export Plug-In . SVG Version: 2.1.1 Build 123)  -->
  <defs>
    <style>
      .st0, .st1, .st2 {
        stroke: #000;
      }

      .st0, .st1, .st3 {
        fill: #85c534;
      }

      .st0, .st2 {
        stroke-miterlimit: 10;
      }

      .st1 {
        stroke-miterlimit: 10;
        stroke-width: 1px;
      }

      .st2 {
        fill: none;
      }
    </style>
  </defs>
  <g id="Layer_11" data-name="Layer_1">
    <polygon class="st0" points="182.92 109.86 119.09 154.77 119.09 209.43 182.92 256.27 246.74 209.43 246.74 155.38 182.92 109.86"/>
    <polygon points="121.83 155.58 121.69 207.44 181.41 251.62 181.12 199.9 166.15 186.06 181.12 169.05 181.44 114.51 121.83 155.58"/>
    <polyline class="st3" points="171.16 134.26 131.97 160.37 131.97 201.91 169.33 230.79 169.33 201.91 152.55 182.52 171.16 164.32"/>
    <polygon points="163.1 190.81 127.33 188.35 128.02 175.32 163.47 178.17 163.1 190.81"/>
    <polyline points="244.65 207.56 184.1 251.62 184.31 114.51 244.65 156.83 244.62 170.56 236.75 162.25 221.06 152.21 195.24 136 195.27 176.21 237.63 180.56 237.94 184.9 194.99 186.65 194.39 227.82 229.32 206.85 236.54 202.17 244.62 193.45"/>
  </g>
  <g id="Layer_2">
    <g>
      <g>
        <path class="st0" d="M161.59,268.43c.78,2.76,3.5,4.31,6.07,3.47s4.01-3.76,3.23-6.52-3.5-4.31-6.07-3.47-4.01,3.76-3.23,6.52Z"/>
        <line class="st2" x1="174.29" y1="249.68" x2="169.36" y2="262.92"/>
        <path class="st0" d="M166.23,261.31l-.09.26c1.11.1,1.92.42,2.89.91l.53.44,4.61-12.95-3.2-2.47-.27.75-4.62,13.5"/>
      </g>
      <g>
        <path class="st0" d="M93.22,172.59c-2.71,2.16-3.32,6.21-1.36,9.06s5.74,3.41,8.45,1.25,3.32-6.21,1.36-9.06-5.74-3.41-8.45-1.25Z"/>
        <path class="st0" d="M119.02,175.36l-16.62-.17h0c.27,1.41.31,2.85.12,4.27l-.06.46,16.43.54"/>
      </g>
      <g>
        <path class="st0" d="M235.67,249.28c2.95,1.06,6.15-.69,7.14-3.89s-.59-6.66-3.54-7.72-6.15.69-7.14,3.89.59,6.66,3.54,7.72Z"/>
        <path class="st0" d="M224.1,226.29l8.56,13.83.06.08c.87-1.12,2.06-1.96,3.29-2.58l.19-.1-8.42-13.95"/>
      </g>
      <g>
        <path class="st0" d="M267.58,167.25c2.16-1.72,2.61-4.99,1.02-7.31s-4.64-2.81-6.8-1.09-2.61,4.99-1.02,7.31,4.64,2.81,6.8,1.09Z"/>
        <path class="st0" d="M246.95,160.53l13.28.45h0c-.2.68-.3,1.39-.3,2.1,0,.56.05.98.19,1.72l.03.2-13.2-.24"/>
      </g>
      <g>
        <ellipse class="st1" cx="245.82" cy="121.16" rx="7.68" ry="7.16" transform="translate(-9.31 21.08) rotate(-4.82)"/>
        <path class="st0" d="M226.95,141.02l12.47-15.62.02-.12c1.09,1.16,2.56,2.02,4.01,2.59l1.54.45-13.07,16.18"/>
      </g>
      <g>
        <ellipse class="st0" cx="131.99" cy="252.43" rx="7.68" ry="7.16"/>
        <path class="st0" d="M133.73,245.45h0c1.52.59,1.69.67,3.39,1.93l1.72,1.64,12.71-15.72-4.81-3.43-12.86,15.75"/>
      </g>
      <g>
        <path class="st0" d="M128.46,121.19c-2.55-.9-5.29.6-6.13,3.35-.83,2.74.56,5.69,3.11,6.59,1.31.46,2.47.17,2.8.07,1.53-.46,2.85-1.75,3.33-3.42.7-2.44-.42-5.64-3.11-6.59h0Z"/>
        <line class="st2" x1="135.44" y1="143.14" x2="128.29" y2="131.12"/>
        <path class="st0" d="M138.32,139.68l-7.26-10.71h0c-.62.88-1.45,1.57-2.4,2l-.56.25,7.33,11.91,3.6-2.41-.71-1.04Z"/>
      </g>
      <g>
        <path class="st0" d="M267.44,224.8c3.28-.86,5.3-4.34,4.52-7.78s-4.06-5.54-7.34-4.68-5.3,4.34-4.52,7.78,4.06,5.54,7.34,4.68Z"/>
        <path class="st0" d="M261.58,214.12l-14.84-7.28v2.6l-2.55,1.87,15.73,7.37v-.04c0-1.5.79-3.71,1.78-4.54l-.09.09"/>
      </g>
      <g>
        <path class="st0" d="M154.21,91.03c-3.49-1.25-7.41,1.25-8.75,5.57-1.34,4.33.4,8.85,3.89,10.1s7.41-1.25,8.75-5.57-.4-8.85-3.89-10.1Z"/>
        <path class="st0" d="M157.41,103.12h0c-1.21,1.39-1.69,2.3-3.26,3.16l-1.03.42,9.05,17.76,4.85-3.4-9.71-18.12"/>
      </g>
      <g>
        <path class="st0" d="M221.88,105.34c-1.38-3-4.78-4.21-7.6-2.71s-3.98,5.15-2.59,8.14,4.78,4.21,7.6,2.71,3.98-5.15,2.59-8.14Z"/>
        <path class="st0" d="M210.31,129.34l3.61-15.92h0c1.06.47,2.86.63,4.01.5l.49-.06-3.8,18.58-4.31-3.09h0Z"/>
      </g>
      <g>
        <ellipse class="st0" cx="109.3" cy="218.54" rx="3.83" ry="4.12"/>
        <path class="st0" d="M111.06,214.88l.03-.02c.75.5,1.35,1.07,1.62,1.83l.15.38,7.46-6.73-1.24-.91v-1.81l-.53.46-7.54,6.84"/>
      </g>
      <g>
        <path class="st0" d="M207.86,255.02c1.37,1.73,3.79,1.93,5.4.45s1.8-4.08.42-5.81-3.79-1.93-5.4-.45-1.8,4.08-.42,5.81Z"/>
        <path class="st0" d="M209.13,248.13l.02.44c.84-.28,1.72-.28,2.6-.18l.29.03-.57-12.99-2.78,2.05v.59l.46,10.53"/>
      </g>
      <g>
        <path class="st0" d="M193.19,96.31c-.7-2.15-2.88-3.28-4.88-2.53s-3.05,3.1-2.35,5.25,2.88,3.28,4.88,2.53,3.05-3.1,2.35-5.25Z"/>
        <path class="st0" d="M184,110.64l3.23-9.72h0c.73.53,1.57.88,2.44,1l.11.02-3.1,10.62-2.68-1.91h0Z"/>
        <path class="st3" d="M189.84,101.72"/>
      </g>
      <g>
        <path class="st0" d="M262,191.44c1.95-.87,2.88-3.29,2.06-5.39s-3.06-3.09-5.01-2.22-2.88,3.29-2.06,5.39,3.06,3.09,5.01,2.22Z"/>
        <path class="st0" d="M246.9,181.79l10.48,3.52-.03.06c-.43.86-.63,1.82-.57,2.8h0l-9.94-2.75.08-.16"/>
      </g>
      <path class="st0" d="M128.29,131.39"/>
    </g>
  </g>
</svg>