<?xml version="1.0" encoding="UTF-8"?>
<svg xmlns="http://www.w3.org/2000/svg" version="1.1" viewBox="0 0 792 612">
  <!-- Generator: Adobe Illustrator 30.0.0, SVG Export Plug-In . SVG Version: 2.1.1 Build 123)  -->
  <defs>
    <style>
      .st0 {
        fill: #fff;
      }

      .st0, .st1, .st2, .st3, .st4 {
        stroke: #000;
        stroke-miterlimit: 10;
      }

      .st1 {
        fill: none;
      }

      .st2 {
        fill: #30d0ff;
        opacity: .8;
      }

      .st3 {
        fill: #a5bac8;
      }
    </style>
  </defs>
  <g id="Layer_1">
    <rect class="st3" x="-1.1" y=".14" width="792" height="611.72"/>
    <polygon class="st1" points="396 147.61 381.91 147.61 283.82 189.86 238.77 211.37 197.21 236.97 197.42 265.85 247.65 243.58 276.68 230.32 296.61 219.89 322.17 209.85 352.5 198.48 375.24 187.11 388.61 180.96 419.22 192.41 466.22 211.37 507.16 226.53 517.78 230.32 541.45 246.8 562.51 251.55 570.09 253.82 584.39 259.83 584.39 228.12 559.48 214.4 538.25 203.79 509.44 192.41 473.05 176.49 440.44 165.12 418.46 157.54 396 147.61"/>
    <line class="st4" x1="396" y1="147.61" x2="381.91" y2="147.61"/>
  </g>
  <g id="Layer_3">
    <polyline class="st2" points="381.91 147.61 303.39 183.41 239.73 210.61 194.73 238.51 198.33 276.31 190.23 297 190.23 321.3 185.73 354.6 185.73 369.9 185.73 388.79 179.43 412.19 179.43 432.89 211.83 446.39 255.92 459.89 307.22 469.79 343.22 478.79 361.21 483.29 366.61 483.29 374.71 483.29 391.81 483.29 406.21 483.29 425.11 478.79 448.51 476.09 471.9 468.89 507 458.99 553.8 441.89 594.29 430.19 605.99 426.59 609.59 408.59 603.29 381.6 604.19 363.6 599.69 333.9 597.89 309.6 584.39 290.7 584.39 262.81 585.29 243.91 585.29 228.61 542.17 208.54 501.67 191.44 461.88 173.98 423.31 158.42 396 147.61 381.91 147.61 396 147.61"/>
    <line class="st1" x1="283.82" y1="38.73" x2="283.82" y2="39.63"/>
    <path class="st0" d="M123.09,430.16c-33.6-12.31-64.98-35.64-64.98-81.86s21.24-87.34,65.5-83.74l73.15-4.73.45,4.76-47.48,4.52-17.99.51-15.57.96c-3.97.24-7.85,1.29-11.4,3.09l-10.72,5.42c-2.97,1.5-5.58,3.64-7.62,6.27l-10.68,13.7c-2.04,2.61-3.49,5.63-4.26,8.85l-5.07,21.17-1.47,26.05,5.14,20.55,5.76,13.44c.56,1.3,1.34,2.5,2.3,3.54l12.12,13.1,19.91,12.61c1.39.88,2.93,1.52,4.54,1.87l16.31,3.59c1.93.43,3.89.73,5.86.91l20.9,1.93,21.63-.37v4.39l-24.3,2.19-16.3-.17c-2.98-.03-5.95-.37-8.86-1.02l-6.88-1.53Z"/>
    <path class="st0" d="M672.21,248.33c27.78,5.97,53.12,8.03,58.98,68.92,4.37,45.34-33.33,90.94-70.15,96.6l-25.3,3.08c-4.09.5-8.23.51-12.32.05l-15-1.7,1.17-4.16,11.47.33,14.53.25c2.99.05,5.97-.16,8.93-.63l14.68-2.34c2.12-.34,4.19-.9,6.18-1.68l11.16-4.38c3.44-1.35,6.68-3.18,9.61-5.42l12.3-9.4,13.12-18.03,7.87-17.05,4.26-16.72.98-18.78-1.31-14.33-6.23-16.07-4.61-10.19c-1.07-2.36-2.63-4.46-4.57-6.17l-5.13-4.51c-3.77-3.31-8.33-5.6-13.24-6.64l-29.89-6.37-25.84-1.86-20-.98-15.96-1.81h-13.5l.36-2.82,14.94-1.94,14.81,1.31,12.46.33,13.44.33,9.18.66,22.62,2.13Z"/>
    <polyline class="st1" points="190.17 319.77 221.66 319.77 299.25 272.66 342.36 258.3 373.72 246.8 412.12 246.8 440.34 246.8 481.1 258.3 514.8 273.45 557.91 292.26 576.72 304.47 597.84 308.07"/>
    <polyline class="st1" points="185.67 368.36 219.3 381.61 269.47 402.78 314.15 417.81 374.5 417.81 427.8 414.53 472.48 406.7 511.67 396.51 558.69 378.48 588.48 368.36 604.13 362.06"/>
    <polyline class="st1" points="185.67 344.83 215.39 344.83 237.33 344.83 263.98 337.72 299.25 333.8 329.82 333.8 362.74 333.8 466.21 329.85 502.26 329.85 539.1 333.8 572.12 337.34 586.91 337.34 599.64 332.37"/>
    <polyline class="st1" points="584.34 261.27 572.68 255.12 541.45 246.8 517.94 231.12 465.42 210.74 419.96 192.72 388.61 180.96 351.77 198.99 297.69 219.37 251.44 241.9 197.42 265.85"/>
    <polygon class="st0" points="609.53 407.06 592.33 410.46 573.46 417.81 533.61 431.36 492.85 449.81 463.07 461.56 408.2 472.54 365.88 472.54 321.98 459.99 262.41 443.53 209.9 424.72 182.47 417.81 179.43 412.19 179.43 432.89 226.07 450.75 265.25 461.69 307.22 469.79 343.22 478.79 361.21 483.29 406.21 483.29 425.11 478.79 448.51 476.09 471.9 468.89 499.07 461.22 520.89 453.91 545.31 444.99 566.18 438.31 582.9 433.48 597.84 429.1 605.99 426.59 609.53 407.06"/>
    <path class="st4" d="M381.91,147.61"/>
  </g>
  <g id="Layer_4">
    <polygon class="st0" points="395.63 147.61 381.54 147.61 238.4 211.37 194.73 238.51 197.05 265.85 240.02 246.8 297.31 219.37 341.16 202.59 351.4 198.99 388.23 180.96 415.44 191.14 454.36 206.73 501.12 224.74 517.4 230.32 541.08 246.8 569.72 253.82 583.96 261.27 584.92 228.61 545.46 206.73 501.48 188.62 447.31 167.65 395.63 147.61"/>
  </g>
</svg>