<?xml version="1.0" encoding="UTF-8"?>
<svg xmlns="http://www.w3.org/2000/svg" version="1.1" viewBox="0 0 792 612">
  <!-- Generator: Adobe Illustrator 30.0.0, SVG Export Plug-In . SVG Version: 2.1.1 Build 123)  -->
  <defs>
    <style>
      .st0 {
        fill: #84c7e2;
      }

      .st1 {
        fill: #231f20;
      }

      .st2 {
        fill: #92001a;
      }

      .st3 {
        fill: #a5bac8;
      }

      .st4 {
        fill: #c78900;
      }

      .st5 {
        fill: #fff;
      }

      .st6 {
        fill: #e7b700;
      }

      .st7 {
        fill: #cbffff;
      }

      .st8 {
        fill: #e9be00;
      }
    </style>
  </defs>
  <g id="Layer_1">
    <g id="_x3C_babysyge_x3E_">
      <path class="st6" d="M527.06,470.57c-76.36,94.43-298.03,108.52-382.75,44.14-94.88-72.08,111.09-134.09,145.77-250.97,34.68-116.88,44.8-277.4,148.84-219.86,149.09,82.5,153.17,346.26,88.14,426.69h0Z"/>
      <path class="st4" d="M517.7,456.62c-67.35,81.69-264.46,92.57-340.27,35.99-84.87-63.32,98-116.02,128.1-217.5,30.1-101.48,38.1-241.16,131.02-190.42,133.14,72.73,138.47,302.36,81.09,371.93h.05Z"/>
      <circle class="st5" cx="436.76" cy="235.86" r="66.44"/>
      <circle class="st1" cx="436.76" cy="235.86" r="31.06"/>
      <path class="st2" d="M295.32,359.73c-3.83,16.16,39.06,71.07,88.44,82.85,49.38,11.78,120.4-27.99,124.23-44.14,3.83-16.16-60.91-2.57-110.28-14.35-49.38-11.78-98.51-40.52-102.33-24.36h-.05Z"/>
      <polygon class="st5" points="419.45 394.33 408.62 444.73 429.3 441.81 419.45 394.33"/>
    </g>
  </g>
  <g id="Layer_2">
    <polygon class="st3" points="163.26 281.71 150.9 278.11 177.62 172.56 196.41 178.47 163.26 281.71"/>
    <circle class="st0" cx="147.12" cy="308.51" r="31.18"/>
    <circle class="st5" cx="147.12" cy="308.51" r="22.47"/>
    <ellipse class="st0" cx="198.92" cy="137.66" rx="43.76" ry="44.03"/>
    <ellipse class="st7" cx="198.92" cy="137.66" rx="21.9" ry="21.33"/>
    <ellipse class="st7" cx="204.92" cy="118.81" rx="6.84" ry="6.88"/>
    <ellipse class="st7" cx="183.86" cy="125.69" rx="6.84" ry="6.88"/>
    <ellipse class="st7" cx="215.05" cy="125.69" rx="6.84" ry="6.88"/>
    <ellipse class="st7" cx="188.29" cy="152.11" rx="6.84" ry="6.88"/>
    <ellipse class="st7" cx="179.52" cy="135.86" rx="6.84" ry="6.88"/>
    <ellipse class="st7" cx="217.36" cy="135.86" rx="6.84" ry="6.88"/>
    <ellipse class="st7" cx="215.05" cy="145.8" rx="6.84" ry="6.88"/>
    <ellipse class="st7" cx="208.21" cy="152.68" rx="6.84" ry="6.88"/>
    <ellipse class="st7" cx="198.08" cy="155.73" rx="6.84" ry="6.88"/>
    <ellipse class="st7" cx="193.2" cy="118.81" rx="6.84" ry="6.88"/>
    <ellipse class="st7" cx="181.45" cy="145.8" rx="6.84" ry="6.88"/>
    <ellipse class="st7" cx="202.76" cy="172.56" rx="4.69" ry="4.72"/>
    <ellipse class="st7" cx="219.74" cy="165.37" rx="4.69" ry="4.72"/>
    <ellipse class="st7" cx="230.89" cy="152.11" rx="4.69" ry="4.72"/>
    <ellipse class="st7" cx="233.5" cy="133.7" rx="4.69" ry="4.72"/>
    <ellipse class="st7" cx="226.2" cy="115.29" rx="4.69" ry="4.72"/>
    <ellipse class="st7" cx="213.05" cy="104.61" rx="4.69" ry="4.72"/>
    <ellipse class="st7" cx="195.05" cy="102.27" rx="4.69" ry="4.72"/>
    <ellipse class="st7" cx="171.63" cy="158.99" rx="4.69" ry="4.72"/>
    <ellipse class="st7" cx="186.01" cy="170.09" rx="4.69" ry="4.72"/>
    <ellipse class="st7" cx="164.23" cy="142.74" rx="4.69" ry="4.72"/>
    <ellipse class="st7" cx="166.8" cy="123.52" rx="4.69" ry="4.72"/>
    <ellipse class="st7" cx="178.34" cy="109.33" rx="4.69" ry="4.72"/>
    <g>
      <polygon points="665.19 288.95 609.05 307.1 609.62 313.15 665.76 294.99 665.19 288.95"/>
      <polygon points="659.63 270.98 666.95 347.81 672.45 346.04 665.13 269.2 659.63 270.98"/>
      <polygon points="608.33 299.27 665.69 280.72 664.59 269.23 607.24 287.78 608.33 299.27"/>
      <path d="M620.33,361.97c.3,3.2-3.05,6.96-7.48,8.39-4.44,1.44-8.28,0-8.59-3.2-.3-3.2,3.05-6.96,7.48-8.39,4.44-1.44,8.28,0,8.59,3.2Z"/>
      <path d="M672.44,345.67c.19,3.23-3.28,6.72-7.75,7.79-4.47,1.07-8.24-.69-8.43-3.92-.19-3.23,3.28-6.72,7.75-7.79,4.47-1.07,8.24.69,8.43,3.92Z"/>
      <polygon points="607.26 287.91 614.58 364.75 620.14 362.95 612.82 286.11 607.26 287.91"/>
    </g>
    <path class="st8" d="M253.28,326.89l-47.5-58.67c-.05-.06-.08-.12-.09-.2l-9.05-62.06c-.7-4.81-4.44-6.84-7.47-4.06l-5.52,5.06c-6.07,5.57-13.59,1.95-15.48-7.45l-4.79-23.88c-1.14-5.68-6.49-6.02-8.67-.55h0c-4.14,10.38-6.96,21.63-8.33,33.17h0c-1.33,11.23-.08,22.44,3.56,31.82h0c5.72,14.76,14.01,26.83,24.12,35.12l5.54,4.54s.06.05.08.09l6.1,8.93c.87,1.28,1.64,2.68,2.33,4.18,11.9,25.76,21.86,42.24,46.55,56.22l-.27-.15c.17.1.08-.27.2-.42l20.28-21.85c.12-.15-1.49.32-1.61.17Z"/>
  </g>
</svg>